<mxfile host="app.diagrams.net" modified="2021-08-08T03:57:10.680Z" agent="5.0 (Windows NT 10.0; Win64; x64) AppleWebKit/537.36 (KHTML, like Gecko) Chrome/92.0.4515.131 Safari/537.36" etag="6CHtVVyd9iCKadiaSbda" version="14.9.4" type="github">
  <diagram id="QCEERc0eEgBohQKH5NO_" name="Page-1">
    <mxGraphModel dx="1422" dy="794" grid="1" gridSize="10" guides="1" tooltips="1" connect="1" arrows="1" fold="1" page="1" pageScale="1" pageWidth="827" pageHeight="1169" math="0" shadow="0">
      <root>
        <mxCell id="0" />
        <mxCell id="1" parent="0" />
        <mxCell id="QAEoep2KOEI7FuyO-UFe-6" value="" style="edgeStyle=orthogonalEdgeStyle;rounded=0;orthogonalLoop=1;jettySize=auto;html=1;" parent="1" source="QAEoep2KOEI7FuyO-UFe-2" target="QAEoep2KOEI7FuyO-UFe-5" edge="1">
          <mxGeometry relative="1" as="geometry" />
        </mxCell>
        <mxCell id="QAEoep2KOEI7FuyO-UFe-2" value="&lt;ul style=&quot;font-size: 13px;&quot;&gt;&lt;li style=&quot;font-size: 13px;&quot;&gt;隨機初始解&lt;/li&gt;&lt;li style=&quot;font-size: 13px;&quot;&gt;將初始解設為歷史最佳解&lt;/li&gt;&lt;li style=&quot;font-size: 13px;&quot;&gt;清空禁忌表&lt;/li&gt;&lt;/ul&gt;" style="rounded=0;whiteSpace=wrap;html=1;align=left;fillColor=#dae8fc;strokeColor=#6c8ebf;fontSize=13;" parent="1" vertex="1">
          <mxGeometry x="346.5" y="50" width="189" height="60" as="geometry" />
        </mxCell>
        <mxCell id="5oJi8BjHkf0zykbQEPQi-33" value="" style="edgeStyle=orthogonalEdgeStyle;rounded=0;orthogonalLoop=1;jettySize=auto;html=1;entryX=0.5;entryY=0;entryDx=0;entryDy=0;" edge="1" parent="1" source="QAEoep2KOEI7FuyO-UFe-5" target="5oJi8BjHkf0zykbQEPQi-35">
          <mxGeometry relative="1" as="geometry">
            <mxPoint x="440" y="230" as="targetPoint" />
          </mxGeometry>
        </mxCell>
        <mxCell id="QAEoep2KOEI7FuyO-UFe-5" value="建構鄰近解清單" style="whiteSpace=wrap;html=1;rounded=0;" parent="1" vertex="1">
          <mxGeometry x="381" y="140" width="120" height="60" as="geometry" />
        </mxCell>
        <mxCell id="5oJi8BjHkf0zykbQEPQi-6" value="" style="edgeStyle=orthogonalEdgeStyle;rounded=0;orthogonalLoop=1;jettySize=auto;html=1;" edge="1" parent="1" source="5oJi8BjHkf0zykbQEPQi-8" target="5oJi8BjHkf0zykbQEPQi-9">
          <mxGeometry relative="1" as="geometry" />
        </mxCell>
        <mxCell id="5oJi8BjHkf0zykbQEPQi-7" value="" style="edgeStyle=orthogonalEdgeStyle;rounded=0;orthogonalLoop=1;jettySize=auto;html=1;" edge="1" parent="1" source="5oJi8BjHkf0zykbQEPQi-8" target="5oJi8BjHkf0zykbQEPQi-11">
          <mxGeometry relative="1" as="geometry" />
        </mxCell>
        <mxCell id="5oJi8BjHkf0zykbQEPQi-8" value="鄰近最佳解是否優於歷史最佳解" style="rhombus;whiteSpace=wrap;html=1;rounded=0;fillColor=#dae8fc;strokeColor=#6c8ebf;fontSize=13;" vertex="1" parent="1">
          <mxGeometry x="401.25" y="545" width="80" height="80" as="geometry" />
        </mxCell>
        <mxCell id="5oJi8BjHkf0zykbQEPQi-53" style="edgeStyle=orthogonalEdgeStyle;rounded=0;orthogonalLoop=1;jettySize=auto;html=1;" edge="1" parent="1" source="5oJi8BjHkf0zykbQEPQi-9">
          <mxGeometry relative="1" as="geometry">
            <mxPoint x="441" y="120" as="targetPoint" />
            <Array as="points">
              <mxPoint x="680" y="723" />
            </Array>
          </mxGeometry>
        </mxCell>
        <mxCell id="5oJi8BjHkf0zykbQEPQi-9" value="&lt;ul style=&quot;font-size: 13px;&quot;&gt;&lt;li style=&quot;font-size: 13px;&quot;&gt;從目前解移動到鄰近最佳解&lt;/li&gt;&lt;li style=&quot;font-size: 13px;&quot;&gt;將禁忌表的最早對象替換成上述移動&lt;/li&gt;&lt;li style=&quot;font-size: 13px;&quot;&gt;更新歷史最佳解&lt;/li&gt;&lt;/ul&gt;" style="whiteSpace=wrap;html=1;rounded=0;align=left;fillColor=#dae8fc;strokeColor=#6c8ebf;fontSize=13;" vertex="1" parent="1">
          <mxGeometry x="306.5" y="680" width="269.5" height="60" as="geometry" />
        </mxCell>
        <mxCell id="5oJi8BjHkf0zykbQEPQi-10" value="是" style="text;html=1;strokeColor=none;fillColor=none;align=center;verticalAlign=middle;whiteSpace=wrap;rounded=0;" vertex="1" parent="1">
          <mxGeometry x="440.99" y="630" width="40" height="20" as="geometry" />
        </mxCell>
        <mxCell id="5oJi8BjHkf0zykbQEPQi-52" style="edgeStyle=orthogonalEdgeStyle;rounded=0;orthogonalLoop=1;jettySize=auto;html=1;" edge="1" parent="1" source="5oJi8BjHkf0zykbQEPQi-11">
          <mxGeometry relative="1" as="geometry">
            <mxPoint x="440" y="120" as="targetPoint" />
            <Array as="points">
              <mxPoint x="90" y="603" />
            </Array>
          </mxGeometry>
        </mxCell>
        <mxCell id="5oJi8BjHkf0zykbQEPQi-11" value="&lt;ul style=&quot;font-size: 13px;&quot;&gt;&lt;li style=&quot;font-size: 13px;&quot;&gt;目前解移動到非禁忌鄰近最佳解&lt;/li&gt;&lt;li style=&quot;font-size: 13px;&quot;&gt;將上述移動放入到禁忌表末尾&lt;/li&gt;&lt;/ul&gt;" style="whiteSpace=wrap;html=1;rounded=0;align=left;fillColor=#dae8fc;strokeColor=#6c8ebf;fontSize=13;" vertex="1" parent="1">
          <mxGeometry x="120" y="555" width="226.5" height="60" as="geometry" />
        </mxCell>
        <mxCell id="5oJi8BjHkf0zykbQEPQi-12" value="否" style="text;html=1;strokeColor=none;fillColor=none;align=center;verticalAlign=middle;whiteSpace=wrap;rounded=0;" vertex="1" parent="1">
          <mxGeometry x="360.99" y="555" width="40" height="20" as="geometry" />
        </mxCell>
        <mxCell id="5oJi8BjHkf0zykbQEPQi-45" style="edgeStyle=orthogonalEdgeStyle;rounded=0;orthogonalLoop=1;jettySize=auto;html=1;entryX=0.5;entryY=0;entryDx=0;entryDy=0;" edge="1" parent="1" source="5oJi8BjHkf0zykbQEPQi-28" target="5oJi8BjHkf0zykbQEPQi-38">
          <mxGeometry relative="1" as="geometry" />
        </mxCell>
        <mxCell id="5oJi8BjHkf0zykbQEPQi-28" value="&lt;ul&gt;&lt;li style=&quot;&quot;&gt;更新鄰近最佳解&lt;br&gt;&lt;/li&gt;&lt;/ul&gt;" style="whiteSpace=wrap;html=1;rounded=0;align=left;" vertex="1" parent="1">
          <mxGeometry x="277" y="330" width="136.25" height="60" as="geometry" />
        </mxCell>
        <mxCell id="5oJi8BjHkf0zykbQEPQi-46" style="edgeStyle=orthogonalEdgeStyle;rounded=0;orthogonalLoop=1;jettySize=auto;html=1;entryX=0.5;entryY=0;entryDx=0;entryDy=0;" edge="1" parent="1" source="5oJi8BjHkf0zykbQEPQi-29" target="5oJi8BjHkf0zykbQEPQi-38">
          <mxGeometry relative="1" as="geometry" />
        </mxCell>
        <mxCell id="5oJi8BjHkf0zykbQEPQi-29" value="&lt;ul&gt;&lt;li style=&quot;text-align: center&quot;&gt;更新非禁忌鄰近最佳解&lt;br&gt;&lt;/li&gt;&lt;/ul&gt;" style="whiteSpace=wrap;html=1;rounded=0;align=left;" vertex="1" parent="1">
          <mxGeometry x="470" y="330" width="164.25" height="60" as="geometry" />
        </mxCell>
        <mxCell id="5oJi8BjHkf0zykbQEPQi-36" value="" style="edgeStyle=orthogonalEdgeStyle;rounded=0;orthogonalLoop=1;jettySize=auto;html=1;" edge="1" parent="1" source="5oJi8BjHkf0zykbQEPQi-35" target="5oJi8BjHkf0zykbQEPQi-29">
          <mxGeometry relative="1" as="geometry" />
        </mxCell>
        <mxCell id="5oJi8BjHkf0zykbQEPQi-37" style="edgeStyle=orthogonalEdgeStyle;rounded=0;orthogonalLoop=1;jettySize=auto;html=1;entryX=0.5;entryY=0;entryDx=0;entryDy=0;" edge="1" parent="1" source="5oJi8BjHkf0zykbQEPQi-35" target="5oJi8BjHkf0zykbQEPQi-28">
          <mxGeometry relative="1" as="geometry" />
        </mxCell>
        <mxCell id="5oJi8BjHkf0zykbQEPQi-35" value="&lt;ul&gt;&lt;li&gt;取出一條鄰近解&lt;/li&gt;&lt;/ul&gt;" style="whiteSpace=wrap;html=1;rounded=0;align=left;" vertex="1" parent="1">
          <mxGeometry x="372.87" y="230" width="136.25" height="60" as="geometry" />
        </mxCell>
        <mxCell id="5oJi8BjHkf0zykbQEPQi-47" style="edgeStyle=orthogonalEdgeStyle;rounded=0;orthogonalLoop=1;jettySize=auto;html=1;" edge="1" parent="1" source="5oJi8BjHkf0zykbQEPQi-38">
          <mxGeometry relative="1" as="geometry">
            <mxPoint x="441" y="210" as="targetPoint" />
            <Array as="points">
              <mxPoint x="230" y="480" />
            </Array>
          </mxGeometry>
        </mxCell>
        <mxCell id="5oJi8BjHkf0zykbQEPQi-49" style="edgeStyle=orthogonalEdgeStyle;rounded=0;orthogonalLoop=1;jettySize=auto;html=1;" edge="1" parent="1" source="5oJi8BjHkf0zykbQEPQi-38" target="5oJi8BjHkf0zykbQEPQi-8">
          <mxGeometry relative="1" as="geometry" />
        </mxCell>
        <mxCell id="5oJi8BjHkf0zykbQEPQi-38" value="還有未拜訪解?" style="rhombus;whiteSpace=wrap;html=1;rounded=0;align=center;fillColor=#dae8fc;strokeColor=#6c8ebf;fontSize=13;" vertex="1" parent="1">
          <mxGeometry x="400.995" y="430" width="80" height="80" as="geometry" />
        </mxCell>
        <mxCell id="5oJi8BjHkf0zykbQEPQi-48" value="是" style="text;html=1;strokeColor=none;fillColor=none;align=center;verticalAlign=middle;whiteSpace=wrap;rounded=0;" vertex="1" parent="1">
          <mxGeometry x="360.99" y="450" width="40" height="20" as="geometry" />
        </mxCell>
        <mxCell id="5oJi8BjHkf0zykbQEPQi-50" value="否" style="text;html=1;strokeColor=none;fillColor=none;align=center;verticalAlign=middle;whiteSpace=wrap;rounded=0;" vertex="1" parent="1">
          <mxGeometry x="441.25" y="510" width="40" height="20" as="geometry" />
        </mxCell>
        <mxCell id="5oJi8BjHkf0zykbQEPQi-54" value="建構鄰近解清單" style="whiteSpace=wrap;html=1;rounded=0;fontSize=13;fillColor=#dae8fc;strokeColor=#6c8ebf;" vertex="1" parent="1">
          <mxGeometry x="381" y="140" width="120" height="60" as="geometry" />
        </mxCell>
        <mxCell id="5oJi8BjHkf0zykbQEPQi-55" value="&lt;span&gt;&lt;font style=&quot;font-size: 13px&quot;&gt;取出一條鄰近解&lt;/font&gt;&lt;/span&gt;" style="whiteSpace=wrap;html=1;rounded=0;align=center;fillColor=#dae8fc;strokeColor=#6c8ebf;" vertex="1" parent="1">
          <mxGeometry x="372.87" y="230" width="136.25" height="60" as="geometry" />
        </mxCell>
        <mxCell id="5oJi8BjHkf0zykbQEPQi-56" value="&lt;span&gt;&lt;font style=&quot;font-size: 13px&quot;&gt;更新鄰近最佳解&lt;/font&gt;&lt;/span&gt;" style="whiteSpace=wrap;html=1;rounded=0;align=center;fillColor=#dae8fc;strokeColor=#6c8ebf;" vertex="1" parent="1">
          <mxGeometry x="277" y="330" width="136.25" height="60" as="geometry" />
        </mxCell>
        <mxCell id="5oJi8BjHkf0zykbQEPQi-57" value="&lt;div&gt;&lt;span&gt;&lt;font style=&quot;font-size: 13px&quot;&gt;更新非禁忌鄰近最佳解&lt;/font&gt;&lt;/span&gt;&lt;/div&gt;" style="whiteSpace=wrap;html=1;rounded=0;align=center;fillColor=#dae8fc;strokeColor=#6c8ebf;" vertex="1" parent="1">
          <mxGeometry x="470" y="330" width="164.25" height="60" as="geometry" />
        </mxCell>
      </root>
    </mxGraphModel>
  </diagram>
</mxfile>
